<svg id="Calque_1" data-name="Calque 1" xmlns="http://www.w3.org/2000/svg" viewBox="0 0 419 493.52"><defs><style>.cls-1,.cls-2{fill:#004a99;}.cls-2{font-size:59px;font-family:ArialRoundedMTBold, Arial Rounded MT Bold;}.cls-3{letter-spacing:-0.02em;}.cls-4{letter-spacing:0em;}</style></defs><title>d1</title><path class="cls-1" d="M108.7,197.81a36.51,36.51,0,0,0,25.49-10.43l36.33,18.3A36.75,36.75,0,1,0,240,194.29l49.3-49.65a36.06,36.06,0,0,0,15.77,3.72,36.61,36.61,0,0,0,35-48.08l42.83-32.34a36.4,36.4,0,0,0,20.38,6.24,37.09,37.09,0,1,0-36.82-37.09,36.74,36.74,0,0,0,1.84,11L325.49,80.42a36.43,36.43,0,0,0-20.39-6.24,36.9,36.9,0,0,0-33.13,53l-49.3,49.64a36,36,0,0,0-41.26,6.71l-36.34-18.29a36.72,36.72,0,1,0-36.37,32.59Z" transform="translate(-46.5)"/><path class="cls-1" d="M453.22,397.27H440.13V136a12.31,12.31,0,0,0-12.27-12.37H378.75A12.31,12.31,0,0,0,366.48,136V397.27H341.93V210.18a12.31,12.31,0,0,0-12.28-12.37h-49.1a12.31,12.31,0,0,0-12.27,12.37V397.27H243.72V309.08a12.31,12.31,0,0,0-12.27-12.36h-49.1a12.31,12.31,0,0,0-12.28,12.36v88.19H145.52V259.63a12.31,12.31,0,0,0-12.27-12.36H84.14a12.31,12.31,0,0,0-12.27,12.36V397.27H58.78a12.37,12.37,0,0,0,0,24.73H453.22a12.37,12.37,0,0,0,0-24.73Z" transform="translate(-46.5)"/><text class="cls-2" transform="translate(51.97 481.07) scale(0.94 1)">St<tspan class="cls-3" x="60.24" y="0">a</tspan><tspan class="cls-4" x="93.83" y="0">tistiques</tspan></text></svg>